{"title":"Mariah Carey - You're Mine (Eternal) 2014 HD 720p x264 AAC E-Sub","uid":9613024,"size":53320980,"categoryP":"video","categoryS":"music_videos","magnet":"?xt=urn:btih:e559d8b1b6f5f01bc3609ec17c5c37e77bb5b329&amp;dn=Mariah+Carey+-+You%27re+Mine+%28Eternal%29+2014+HD+720p+x264+AAC+E-Sub&amp;tr=udp%3A%2F%2Ftracker.openbittorrent.com%3A80&amp;tr=udp%3A%2F%2Fopen.demonii.com%3A1337&amp;tr=udp%3A%2F%2Ftracker.coppersurfer.tk%3A6969&amp;tr=udp%3A%2F%2Fexodus.desync.com%3A6969","seeders":10,"leechers":0,"uploader":"canc232","files":1,"time":1392359710,"description":"Mariah Carey - You're Mine (Eternal) HD 720p x264 AAC E-Subs [GWC] \n\n\nCOVER: &lt;a href=&quot;\nhttp://i.imgur.com/t1oGsYB.jpg&quot; rel=&quot;nofollow&quot; target=&quot;_NEW&quot;&gt;\nhttp://i.imgur.com/t1oGsYB.jpg&lt;/a&gt;\n\n\nTHUMBNAIL IMAGE : &lt;a href=&quot;\nhttp://img594.imageshack.us/img594/6880/4mrs.jpg&quot; rel=&quot;nofollow&quot; target=&quot;_NEW&quot;&gt;\nhttp://img594.imageshack.us/img594/6880/4mrs.jpg&lt;/a&gt;\n\n\nMEDIA INFO:\nGeneral \nFormat : MPEG-4 \nFormat profile : Base Media \nFile size : 50.9 MiB \nDuration : 3mn 46s \nOverall bit rate mode : Variable \nOverall bit rate : 1 882 Kbps \n\nVideo \nFormat : AVC \nFormat profile : &lt;a class=&quot;__cf_email__&quot; href=&quot;/cdn-cgi/l/email-protection&quot; data-cfemail=&quot;eca18d8582aca0dfc2dd&quot;&gt;[email&amp;#160;protected]&lt;/a&gt;&lt;script cf-hash='f9e31' type=&quot;text/javascript&quot;&gt;\n/* &lt;![CDATA[ */!function(){try{var t=&quot;currentScript&quot;in document?document.currentScript:function(){for(var t=document.getElementsByTagName(&quot;script&quot;),e=t.length;e--;)if(t[e].getAttribute(&quot;cf-hash&quot;))return t[e]}();if(t&amp;&amp;t.previousSibling){var e,r,n,i,c=t.previousSibling,a=c.getAttribute(&quot;data-cfemail&quot;);if(a){for(e=&quot;&quot;,r=parseInt(a.substr(0,2),16),n=2;a.length-n;n+=2)i=parseInt(a.substr(n,2),16)^r,e+=String.fromCharCode(i);e=document.createTextNode(e),c.parentNode.replaceChild(e,c)}}}catch(u){}}();/* ]]&gt; */&lt;/script&gt; \nFormat settings, CABAC : Yes \nFormat settings, ReFrames : 3 frames \nDuration : 3mn 46s \nBit rate : 1 794 Kbps \nMaximum bit rate : 3 916 Kbps \nWidth : 1 280 pixels \nHeight : 720 pixels \nDisplay aspect ratio : 16:9 \nFrame rate : 23.976 fps \nStream size : 48.4 MiB (95%) \nTitle : Mariah Carey - You're Mine (Eternal) HD 720p x264 AAC E-Subs [GWC] \n\nAudio \nFormat : AAC \nFormat profile : LC \nDuration : 3mn 46s \nBit rate mode : Variable \nChannel(s) : 2 channels \nSampling rate : 48.0 KHz \nStream size : 2.30 MiB (5%) \nLanguage : English \n\nText \nFormat : Timed Text \nDuration : 3mn 45s \nTitle : English Subtitle by [GWC] \nLanguage : English","torrent":{"xt":"urn:btih:e559d8b1b6f5f01bc3609ec17c5c37e77bb5b329","amp;dn":"Mariah+Carey+-+You%27re+Mine+%28Eternal%29+2014+HD+720p+x264+AAC+E-Sub","amp;tr":["udp%3A%2F%2Ftracker.openbittorrent.com%3A80","udp%3A%2F%2Fopen.demonii.com%3A1337","udp%3A%2F%2Ftracker.coppersurfer.tk%3A6969","udp%3A%2F%2Fexodus.desync.com%3A6969"],"infoHash":"e559d8b1b6f5f01bc3609ec17c5c37e77bb5b329","infoHashBuffer":{"type":"Buffer","data":[229,89,216,177,182,245,240,27,195,96,158,193,124,92,55,231,123,181,179,41]},"announce":[],"urlList":[]}}